<svg width="111" height="111" viewBox="0 0 111 111" fill="none" xmlns="http://www.w3.org/2000/svg">
<g clip-path="url(#clip0_64_47)">
<path d="M103.4 21.4749C102.656 20.7306 101.646 20.3125 100.594 20.3125H10.4062C9.35367 20.3125 8.3442 20.7306 7.59992 21.4749C6.85563 22.2192 6.4375 23.2287 6.4375 24.2812V86.7188C6.4375 87.7713 6.85563 88.7808 7.59992 89.5251C8.34421 90.2694 9.35367 90.6875 10.4062 90.6875H100.594C101.646 90.6875 102.656 90.2694 103.4 89.5251C104.144 88.7808 104.562 87.7713 104.562 86.7188V24.2812C104.562 23.2287 104.144 22.2192 103.4 21.4749ZM3.40147 17.2765C5.25926 15.4187 7.77895 14.375 10.4062 14.375H100.594C103.221 14.375 105.741 15.4187 107.599 17.2765C109.456 19.1343 110.5 21.6539 110.5 24.2812V86.7188C110.5 89.3461 109.456 91.8657 107.599 93.7235C105.741 95.5813 103.221 96.625 100.594 96.625H10.4062C7.77895 96.625 5.25926 95.5813 3.40147 93.7235C1.54369 91.8657 0.5 89.3461 0.5 86.7188V24.2812C0.5 21.6539 1.54369 19.1343 3.40147 17.2765Z" fill="black" stroke="white"/>
<path d="M34.6875 55.5C34.6875 54.58 35.053 53.6977 35.7035 53.0472C36.354 52.3967 37.2363 52.0312 38.1562 52.0312H86.7188C87.6387 52.0312 88.521 52.3967 89.1715 53.0472C89.822 53.6977 90.1875 54.58 90.1875 55.5C90.1875 56.42 89.822 57.3023 89.1715 57.9528C88.521 58.6033 87.6387 58.9688 86.7188 58.9688H38.1562C37.2363 58.9688 36.354 58.6033 35.7035 57.9528C35.053 57.3023 34.6875 56.42 34.6875 55.5ZM34.6875 38.1562C34.6875 37.2363 35.053 36.354 35.7035 35.7035C36.354 35.053 37.2363 34.6875 38.1562 34.6875H86.7188C87.6387 34.6875 88.521 35.053 89.1715 35.7035C89.822 36.354 90.1875 37.2363 90.1875 38.1562C90.1875 39.0762 89.822 39.9585 89.1715 40.609C88.521 41.2595 87.6387 41.625 86.7188 41.625H38.1562C37.2363 41.625 36.354 41.2595 35.7035 40.609C35.053 39.9585 34.6875 39.0762 34.6875 38.1562ZM34.6875 72.8438C34.6875 71.9238 35.053 71.0415 35.7035 70.391C36.354 69.7405 37.2363 69.375 38.1562 69.375H86.7188C87.6387 69.375 88.521 69.7405 89.1715 70.391C89.822 71.0415 90.1875 71.9238 90.1875 72.8438C90.1875 73.7637 89.822 74.646 89.1715 75.2965C88.521 75.947 87.6387 76.3125 86.7188 76.3125H38.1562C37.2363 76.3125 36.354 75.947 35.7035 75.2965C35.053 74.646 34.6875 73.7637 34.6875 72.8438ZM27.75 38.1562C27.75 39.0762 27.3845 39.9585 26.734 40.609C26.0835 41.2595 25.2012 41.625 24.2812 41.625C23.3613 41.625 22.479 41.2595 21.8285 40.609C21.178 39.9585 20.8125 39.0762 20.8125 38.1562C20.8125 37.2363 21.178 36.354 21.8285 35.7035C22.479 35.053 23.3613 34.6875 24.2812 34.6875C25.2012 34.6875 26.0835 35.053 26.734 35.7035C27.3845 36.354 27.75 37.2363 27.75 38.1562V38.1562ZM27.75 55.5C27.75 56.42 27.3845 57.3023 26.734 57.9528C26.0835 58.6033 25.2012 58.9688 24.2812 58.9688C23.3613 58.9688 22.479 58.6033 21.8285 57.9528C21.178 57.3023 20.8125 56.42 20.8125 55.5C20.8125 54.58 21.178 53.6977 21.8285 53.0472C22.479 52.3967 23.3613 52.0312 24.2812 52.0312C25.2012 52.0312 26.0835 52.3967 26.734 53.0472C27.3845 53.6977 27.75 54.58 27.75 55.5V55.5ZM27.75 72.8438C27.75 73.7637 27.3845 74.646 26.734 75.2965C26.0835 75.947 25.2012 76.3125 24.2812 76.3125C23.3613 76.3125 22.479 75.947 21.8285 75.2965C21.178 74.646 20.8125 73.7637 20.8125 72.8438C20.8125 71.9238 21.178 71.0415 21.8285 70.391C22.479 69.7405 23.3613 69.375 24.2812 69.375C25.2012 69.375 26.0835 69.7405 26.734 70.391C27.3845 71.0415 27.75 71.9238 27.75 72.8438V72.8438Z" fill="black"/>
</g>
<defs>
<clipPath id="clip0_64_47">
<rect width="111" height="111" fill="white"/>
</clipPath>
</defs>
</svg>
