<svg width="155" height="86" viewBox="0 0 155 86" fill="none" xmlns="http://www.w3.org/2000/svg">
<g clip-path="url(#clip0_64_43)">
<path d="M145.389 21.5V22.5H146.389C148.501 22.5 150.276 23.2347 151.771 24.7271C153.265 26.2195 154 27.9919 154 30.1V55.9C154 58.0081 153.265 59.7805 151.771 61.2729C150.276 62.7653 148.501 63.5 146.389 63.5H145.389V64.5V75.25C145.389 77.9385 144.442 80.2154 142.52 82.1346C140.599 84.0539 138.318 85 135.625 85H10.7639C8.07072 85 5.79033 84.0539 3.86854 82.1346C1.94679 80.2154 1 77.9385 1 75.25V10.75C1 8.06149 1.94679 5.78464 3.86854 3.86538C5.79033 1.94607 8.07073 1 10.7639 1H135.625C138.318 1 140.599 1.94607 142.52 3.86538C144.442 5.78465 145.389 8.06149 145.389 10.75V21.5ZM146.389 56.9H147.389V55.9V30.1V29.1H146.389H138.778V10.75C138.778 9.88643 138.49 9.10734 137.879 8.49712C137.268 7.88701 136.489 7.6 135.625 7.6H10.7639C9.9003 7.6 9.12083 7.88701 8.50993 8.49712C7.89893 9.10734 7.61111 9.88643 7.61111 10.75V75.25C7.61111 76.1136 7.89893 76.8927 8.50993 77.5029C9.12083 78.113 9.9003 78.4 10.7639 78.4H135.625C136.489 78.4 137.268 78.113 137.879 77.5029C138.49 76.8927 138.778 76.1136 138.778 75.25V56.9H146.389ZM15.5 71V14.5H102.333V71H15.5Z" fill="black" stroke="white" stroke-width="2"/>
<rect x="13" y="12" width="106" height="62" fill="white"/>
<path d="M71.8923 61.4457L70.6812 61.4444L77.0512 44.0371L58.8928 44.1982L74.8659 21.3107L76.2955 21.3121L68.6217 38.8344L86.1662 38.6788L71.8923 61.4457Z" fill="black"/>
</g>
<defs>
<clipPath id="clip0_64_43">
<rect width="155" height="86" fill="white"/>
</clipPath>
</defs>
</svg>
