<svg width="1015" height="1090" viewBox="0 0 1015 1090" fill="none" xmlns="http://www.w3.org/2000/svg">
<g filter="url(#filter0_f_27_4)">
<path d="M446.123 458.836C283.417 502.039 298.565 609.938 298.25 666.89C297.54 795.285 529.709 802.443 608.51 787.284C652.244 778.87 726.969 639.011 717.115 589.636C699.033 499.04 649.505 404.831 446.123 458.836Z" fill="#0057FF"/>
</g>
<path d="M393.524 236.549C393.524 236.549 452.434 213.639 504.798 215.332C557.163 217.025 612.687 233.276 612.687 233.276C612.687 233.276 579.959 539.111 583.232 627.477C586.505 715.842 614.38 974.165 614.38 974.165C614.38 974.165 560.323 998.768 509.651 995.495C458.979 992.222 400.069 975.858 400.069 975.858C400.069 975.858 427.041 706.023 427.041 599.714C427.041 493.405 393.524 236.549 393.524 236.549Z" fill="white" stroke="black" stroke-width="0.5" stroke-miterlimit="10"/>
<g filter="url(#filter1_i_27_4)">
<path d="M363.504 413.279C357.5 364 355 291.5 363.504 212.5C363.504 212.5 394.088 189.827 503.895 189.263C613.703 188.698 634.5 212.5 634.5 212.5C634.5 212.5 654.5 326.5 644.512 423.887C644.512 423.887 549.601 387.096 482.227 384.614C414.853 382.131 362.94 448.376 363.504 413.279Z" fill="url(#paint0_linear_27_4)"/>
</g>
<path d="M363.504 413.279C357.5 364 355 291.5 363.504 212.5C363.504 212.5 394.088 189.827 503.895 189.263C613.703 188.698 634.5 212.5 634.5 212.5C634.5 212.5 654.5 326.5 644.512 423.887C644.512 423.887 549.601 387.096 482.227 384.614C414.853 382.131 362.94 448.376 363.504 413.279Z" stroke="black" stroke-width="0.5" stroke-miterlimit="10"/>
<g filter="url(#filter2_i_27_4)">
<path d="M652.299 785.36C658.5 856 653.653 919.882 650.832 998.655C650.832 998.655 625.101 1021 510.667 1021C396.232 1021 368.47 1001.81 368.47 1001.81C368.47 1001.81 347 815.944 359.78 772.156C359.78 772.156 458.302 812.784 528.385 815.944C598.467 819.104 653.202 747.215 652.299 785.36Z" fill="url(#paint1_linear_27_4)"/>
</g>
<path d="M652.299 785.36C658.5 856 653.653 919.882 650.832 998.655C650.832 998.655 625.101 1021 510.667 1021C396.232 1021 368.47 1001.81 368.47 1001.81C368.47 1001.81 347 815.944 359.78 772.156C359.78 772.156 458.302 812.784 528.385 815.944C598.467 819.104 653.202 747.215 652.299 785.36Z" stroke="black" stroke-width="0.5" stroke-miterlimit="10"/>
<g filter="url(#filter3_d_27_4)">
<path d="M567.207 885.575H441.148C419.542 885.531 398.163 881.177 378.261 872.766C358.359 864.356 340.336 852.059 325.247 836.596C293.985 804.543 276.524 761.518 276.606 716.744V501.418C276.499 456.639 293.964 413.606 325.247 381.567C340.336 366.103 358.359 353.806 378.261 345.396C398.163 336.986 419.542 332.631 441.148 332.588H567.207C588.812 332.631 610.192 336.986 630.094 345.396C649.995 353.806 668.019 366.103 683.108 381.567C714.391 413.606 731.855 456.639 731.749 501.418V716.744C731.831 761.518 714.37 804.543 683.108 836.596C668.019 852.059 649.995 864.356 630.094 872.766C610.192 881.177 588.812 885.531 567.207 885.575Z" fill="url(#paint2_linear_27_4)"/>
<path d="M567.207 885.575H441.148C419.542 885.531 398.163 881.177 378.261 872.766C358.359 864.356 340.336 852.059 325.247 836.596C293.985 804.543 276.524 761.518 276.606 716.744V501.418C276.499 456.639 293.964 413.606 325.247 381.567C340.336 366.103 358.359 353.806 378.261 345.396C398.163 336.986 419.542 332.631 441.148 332.588H567.207C588.812 332.631 610.192 336.986 630.094 345.396C649.995 353.806 668.019 366.103 683.108 381.567C714.391 413.606 731.855 456.639 731.749 501.418V716.744C731.831 761.518 714.37 804.543 683.108 836.596C668.019 852.059 649.995 864.356 630.094 872.766C610.192 881.177 588.812 885.531 567.207 885.575Z" stroke="black" stroke-width="0.5" stroke-miterlimit="10"/>
</g>
<g filter="url(#filter4_d_27_4)">
<path d="M558.517 853.411H449.838C430.493 853.405 411.346 849.516 393.531 841.976C375.716 834.435 359.596 823.395 346.125 809.511C319.307 781.968 304.321 745.03 304.369 706.587V516.202C304.345 477.764 319.327 440.835 346.125 413.279C359.596 399.394 375.716 388.354 393.531 380.814C411.346 373.273 430.493 369.384 449.838 369.378H558.517C577.879 369.382 597.044 373.269 614.878 380.81C632.711 388.35 648.852 399.391 662.343 413.279C689.141 440.835 704.123 477.764 704.099 516.202V706.587C704.147 745.03 689.161 781.968 662.343 809.511C648.852 823.398 632.711 834.439 614.878 841.98C597.044 849.52 577.879 853.407 558.517 853.411Z" fill="url(#paint3_linear_27_4)"/>
<path d="M558.517 853.411H449.838C430.493 853.405 411.346 849.516 393.531 841.976C375.716 834.435 359.596 823.395 346.125 809.511C319.307 781.968 304.321 745.03 304.369 706.587V516.202C304.345 477.764 319.327 440.835 346.125 413.279C359.596 399.394 375.716 388.354 393.531 380.814C411.346 373.273 430.493 369.384 449.838 369.378H558.517C577.879 369.382 597.044 373.269 614.878 380.81C632.711 388.35 648.852 399.391 662.343 413.279C689.141 440.835 704.123 477.764 704.099 516.202V706.587C704.147 745.03 689.161 781.968 662.343 809.511C648.852 823.398 632.711 834.439 614.878 841.98C597.044 849.52 577.879 853.407 558.517 853.411Z" stroke="black" stroke-width="0.5" stroke-miterlimit="10"/>
</g>
<path d="M552.423 831.743H457.738C440.587 831.751 423.605 828.353 407.778 821.747C391.95 815.141 377.592 805.458 365.536 793.26C341.059 768.503 327.349 735.082 327.391 700.268V526.359C327.349 491.545 341.059 458.123 365.536 433.367C377.607 421.189 391.968 411.519 407.792 404.914C423.616 398.31 440.591 394.901 457.738 394.883H552.423C569.57 394.901 586.544 398.31 602.368 404.914C618.192 411.519 632.553 421.189 644.625 433.367C669.102 458.123 682.811 491.545 682.77 526.359V700.268C682.811 735.082 669.102 768.503 644.625 793.26C632.568 805.458 618.21 815.141 602.383 821.747C586.555 828.353 569.573 831.751 552.423 831.743Z" fill="black" stroke="black" stroke-width="0.5" stroke-miterlimit="10"/>
<path d="M732.426 658.624C739.535 656.593 740.551 661.784 740.325 588.316C740.213 518.91 739.874 522.296 732.313 519.475L732.426 658.624Z" fill="#323232" stroke="black" stroke-width="0.5" stroke-miterlimit="10"/>
<path d="M433.813 885.8C435.957 914.465 430.54 918.415 506.83 918.189C578.831 917.851 575.332 916.383 578.154 885.8H433.813Z" fill="url(#paint4_linear_27_4)" stroke="black" stroke-width="0.5" stroke-miterlimit="10"/>
<path d="M577.138 332.249C574.994 303.584 580.411 299.634 504.121 299.973C432.007 300.311 435.506 301.779 432.797 332.362L577.138 332.249Z" fill="url(#paint5_linear_27_4)" stroke="black" stroke-width="0.5" stroke-miterlimit="10"/>
<path d="M416.312 556.408C416.312 557.112 416.056 557.72 415.544 558.232C415.032 558.744 414.424 559 413.72 559H409.784C409.08 559 408.472 558.744 407.96 558.232C407.448 557.72 407.192 557.112 407.192 556.408V503.512L391.64 515.32C391.192 515.704 390.648 515.896 390.008 515.896C389.176 515.896 388.504 515.576 387.992 514.936L385.688 511.96C385.304 511.448 385.112 510.904 385.112 510.328C385.112 509.496 385.464 508.824 386.168 508.312L406.712 492.568C407.416 492.056 408.44 491.8 409.784 491.8H413.72C414.424 491.8 415.032 492.056 415.544 492.568C416.056 493.08 416.312 493.688 416.312 494.392V556.408ZM455.662 490.84C461.102 490.84 465.806 491.992 469.774 494.296C473.742 496.6 476.75 499.736 478.798 503.704C480.91 507.608 482.03 511.992 482.158 516.856C482.286 520.696 482.35 523.544 482.35 525.4C482.35 527.256 482.286 530.104 482.158 533.944C481.966 538.808 480.814 543.224 478.702 547.192C476.654 551.096 473.646 554.2 469.678 556.504C465.774 558.808 461.102 559.96 455.662 559.96C450.222 559.96 445.518 558.808 441.55 556.504C437.646 554.2 434.638 551.096 432.526 547.192C430.478 543.224 429.358 538.808 429.166 533.944C429.102 532.024 429.07 529.176 429.07 525.4C429.07 521.624 429.102 518.776 429.166 516.856C429.294 511.992 430.382 507.608 432.43 503.704C434.542 499.736 437.582 496.6 441.55 494.296C445.518 491.992 450.222 490.84 455.662 490.84ZM455.662 499.48C450.542 499.48 446.414 500.984 443.278 503.992C440.142 507 438.478 511.448 438.286 517.336C438.222 519.256 438.19 521.944 438.19 525.4C438.19 528.856 438.222 531.544 438.286 533.464C438.478 539.352 440.142 543.8 443.278 546.808C446.414 549.816 450.542 551.32 455.662 551.32C460.782 551.32 464.91 549.816 468.046 546.808C471.182 543.8 472.846 539.352 473.038 533.464C473.166 529.624 473.23 526.936 473.23 525.4C473.23 523.864 473.166 521.176 473.038 517.336C472.846 511.448 471.182 507 468.046 503.992C464.91 500.984 460.782 499.48 455.662 499.48ZM503.458 513.784C504.162 513.784 504.77 514.04 505.282 514.552C505.794 515.064 506.05 515.672 506.05 516.376V522.808C506.05 523.512 505.794 524.12 505.282 524.632C504.77 525.144 504.162 525.4 503.458 525.4H497.026C496.322 525.4 495.714 525.144 495.202 524.632C494.69 524.12 494.434 523.512 494.434 522.808V516.376C494.434 515.672 494.69 515.064 495.202 514.552C495.714 514.04 496.322 513.784 497.026 513.784H503.458ZM503.458 547.384C504.162 547.384 504.77 547.64 505.282 548.152C505.794 548.664 506.05 549.272 506.05 549.976V556.408C506.05 557.112 505.794 557.72 505.282 558.232C504.77 558.744 504.162 559 503.458 559H497.026C496.322 559 495.714 558.744 495.202 558.232C494.69 557.72 494.434 557.112 494.434 556.408V549.976C494.434 549.272 494.69 548.664 495.202 548.152C495.714 547.64 496.322 547.384 497.026 547.384H503.458ZM545.875 556.408C545.875 557.112 545.619 557.72 545.107 558.232C544.595 558.744 543.987 559 543.283 559H539.347C538.643 559 538.035 558.744 537.523 558.232C537.011 557.72 536.755 557.112 536.755 556.408V503.512L521.203 515.32C520.755 515.704 520.211 515.896 519.571 515.896C518.739 515.896 518.067 515.576 517.555 514.936L515.251 511.96C514.867 511.448 514.675 510.904 514.675 510.328C514.675 509.496 515.027 508.824 515.73 508.312L536.275 492.568C536.979 492.056 538.003 491.8 539.347 491.8H543.283C543.987 491.8 544.595 492.056 545.107 492.568C545.619 493.08 545.875 493.688 545.875 494.392V556.408ZM585.225 490.84C590.665 490.84 595.369 491.992 599.337 494.296C603.305 496.6 606.313 499.736 608.361 503.704C610.473 507.608 611.593 511.992 611.721 516.856C611.849 520.696 611.913 523.544 611.913 525.4C611.913 527.256 611.849 530.104 611.721 533.944C611.529 538.808 610.377 543.224 608.265 547.192C606.217 551.096 603.209 554.2 599.241 556.504C595.337 558.808 590.665 559.96 585.225 559.96C579.785 559.96 575.081 558.808 571.113 556.504C567.209 554.2 564.201 551.096 562.089 547.192C560.041 543.224 558.921 538.808 558.729 533.944C558.665 532.024 558.633 529.176 558.633 525.4C558.633 521.624 558.665 518.776 558.729 516.856C558.857 511.992 559.945 507.608 561.993 503.704C564.105 499.736 567.145 496.6 571.113 494.296C575.081 491.992 579.785 490.84 585.225 490.84ZM585.225 499.48C580.105 499.48 575.977 500.984 572.841 503.992C569.705 507 568.041 511.448 567.849 517.336C567.785 519.256 567.753 521.944 567.753 525.4C567.753 528.856 567.785 531.544 567.849 533.464C568.041 539.352 569.705 543.8 572.841 546.808C575.977 549.816 580.105 551.32 585.225 551.32C590.345 551.32 594.473 549.816 597.609 546.808C600.745 543.8 602.409 539.352 602.601 533.464C602.729 529.624 602.793 526.936 602.793 525.4C602.793 523.864 602.729 521.176 602.601 517.336C602.409 511.448 600.745 507 597.609 503.992C594.473 500.984 590.345 499.48 585.225 499.48Z" fill="white"/>
<path d="M428.72 458.028V442.75H426.084V440.201H434.419V442.75H431.914V458.028H438.154V451.099H441.025V460.577H426.084V458.028H428.72ZM457.9 458.101V460.577H452.671V458.951C451.04 460.191 449.477 460.811 447.983 460.811C447.036 460.811 446.25 460.606 445.625 460.196C445.009 459.776 444.599 459.239 444.394 458.584C444.189 457.92 444.087 456.856 444.087 455.391V448.873H442.08V446.397H446.87V455.04C446.87 456.084 446.899 456.788 446.958 457.149C447.016 457.51 447.187 457.808 447.47 458.042C447.754 458.277 448.11 458.394 448.54 458.394C449.829 458.394 451.206 457.779 452.671 456.548V448.873H450.166V446.397H455.454V458.101H457.9ZM464.287 446.397V448.111C466.074 446.822 467.705 446.177 469.179 446.177C470.097 446.177 470.854 446.397 471.45 446.836C472.055 447.266 472.451 447.798 472.636 448.433C472.822 449.058 472.915 449.976 472.915 451.187V458.101H475.302V460.577H470.131V451.304C470.131 450.23 469.97 449.532 469.648 449.209C469.326 448.877 468.93 448.711 468.462 448.711C467.231 448.711 465.839 449.312 464.287 450.513V458.101H466.733V460.577H459.013V458.101H461.504V448.873H459.013V446.397H464.287ZM477.983 460.577V456.973H481.587V460.577H477.983ZM511.176 453.296L510.986 460.577H497.964C497.964 459.17 498.213 457.828 498.711 456.548C499.218 455.269 499.926 454.151 500.835 453.194C501.753 452.237 503.149 451.075 505.024 449.708C506.206 448.838 507.006 448.116 507.426 447.54C507.846 446.954 508.056 446.275 508.056 445.503C508.056 444.556 507.758 443.785 507.163 443.189C506.567 442.583 505.747 442.281 504.702 442.281C503.481 442.281 502.588 442.623 502.021 443.306C501.455 443.99 501.172 445.113 501.172 446.675C501.172 447.066 501.181 447.437 501.201 447.789H498.491C498.481 447.437 498.476 447.149 498.476 446.924C498.476 444.717 498.999 442.994 500.044 441.753C501.089 440.503 502.622 439.878 504.643 439.878C506.684 439.878 508.247 440.411 509.331 441.475C510.424 442.54 510.971 443.848 510.971 445.401C510.971 446.7 510.615 447.808 509.902 448.726C509.189 449.644 507.827 450.811 505.815 452.227C503.862 453.614 502.578 454.742 501.963 455.611C501.357 456.48 501.005 457.251 500.908 457.925H508.584L508.701 453.296H511.176ZM522.06 455.098H515.205C514.97 454.19 514.536 453.423 513.901 452.798L522.382 440.04H524.741V452.637H527.993V455.098H524.741V458.101H526.601V460.577H519.892V458.101H522.06V455.098ZM522.06 452.637V444.61L516.714 452.637H522.06ZM537.924 453.487C537.924 451.299 538.647 449.507 540.092 448.111C541.538 446.705 543.3 446.001 545.38 446.001C547.422 446.001 549.174 446.695 550.639 448.082C552.104 449.458 552.837 451.26 552.837 453.487C552.837 455.713 552.104 457.52 550.639 458.907C549.184 460.293 547.431 460.987 545.38 460.987C543.271 460.987 541.499 460.284 540.063 458.877C538.637 457.471 537.924 455.674 537.924 453.487ZM540.869 453.487C540.869 454.883 541.303 456.031 542.172 456.929C543.051 457.818 544.121 458.262 545.38 458.262C546.66 458.262 547.729 457.813 548.589 456.915C549.458 456.006 549.892 454.864 549.892 453.487C549.892 452.1 549.453 450.958 548.574 450.059C547.695 449.161 546.63 448.711 545.38 448.711C544.072 448.711 542.993 449.17 542.143 450.088C541.294 451.006 540.869 452.139 540.869 453.487ZM568.481 446.397V451.758H565.991C565.864 450.733 565.444 449.947 564.731 449.4C564.028 448.853 563.208 448.58 562.27 448.58C561.02 448.58 560.005 449.024 559.223 449.913C558.442 450.792 558.051 451.949 558.051 453.384C558.051 454.722 558.422 455.904 559.165 456.929C559.907 457.945 560.981 458.453 562.387 458.453C564.34 458.453 565.756 457.525 566.635 455.669L568.935 456.753C567.666 459.576 565.444 460.987 562.27 460.987C560.024 460.987 558.256 460.22 556.967 458.687C555.678 457.154 555.034 455.386 555.034 453.384C555.034 451.246 555.737 449.483 557.143 448.096C558.549 446.7 560.171 446.001 562.006 446.001C563.579 446.001 564.907 446.465 565.991 447.393V446.397H568.481ZM570.532 448.873V446.397H572.378V444.214L575.161 441.666V446.397H577.783V448.873H575.161V455.757C575.161 456.861 575.219 457.544 575.337 457.808C575.464 458.062 575.771 458.189 576.259 458.189C576.777 458.189 577.285 458.091 577.783 457.896V460.43C577.07 460.684 576.357 460.811 575.644 460.811C574.795 460.811 574.106 460.625 573.579 460.254C573.051 459.874 572.719 459.4 572.583 458.833C572.446 458.267 572.378 457.291 572.378 455.904V448.873H570.532ZM581.255 460.577V456.973H584.858V460.577H581.255Z" fill="white"/>
<path d="M480.445 812V798.742H475.492V796.968H487.407V798.742H482.434V812H480.445ZM488.453 799.09V796.968H490.299V799.09H488.453ZM488.453 812V801.11H490.299V812H488.453ZM493.272 812V796.968H495.262V804.422L502.727 796.968H505.423L499.117 803.059L505.7 812H503.075L497.723 804.392L495.262 806.791V812H493.272ZM506.859 804.638C506.859 803.92 507.112 803.308 507.618 802.802C508.13 802.296 508.742 802.043 509.453 802.043C510.171 802.043 510.783 802.296 511.289 802.802C511.801 803.308 512.058 803.92 512.058 804.638C512.058 805.355 511.801 805.971 511.289 806.483C510.783 806.989 510.171 807.242 509.453 807.242C508.742 807.242 508.13 806.989 507.618 806.483C507.112 805.971 506.859 805.355 506.859 804.638ZM518.548 812V798.742H513.596V796.968H525.511V798.742H520.538V812H518.548ZM532.094 810.657C531.41 811.238 530.75 811.648 530.115 811.887C529.486 812.126 528.809 812.246 528.084 812.246C526.888 812.246 525.969 811.956 525.326 811.375C524.684 810.787 524.362 810.038 524.362 809.129C524.362 808.596 524.482 808.11 524.721 807.673C524.967 807.229 525.285 806.873 525.675 806.606C526.071 806.34 526.516 806.138 527.008 806.001C527.37 805.906 527.917 805.813 528.648 805.725C530.139 805.547 531.236 805.335 531.94 805.089C531.947 804.836 531.95 804.675 531.95 804.607C531.95 803.855 531.776 803.325 531.427 803.018C530.956 802.601 530.255 802.392 529.325 802.392C528.457 802.392 527.814 802.546 527.397 802.854C526.987 803.154 526.683 803.691 526.485 804.463L524.68 804.217C524.844 803.445 525.114 802.823 525.49 802.351C525.866 801.873 526.41 801.507 527.121 801.254C527.832 800.994 528.655 800.864 529.592 800.864C530.521 800.864 531.277 800.974 531.858 801.192C532.439 801.411 532.866 801.688 533.14 802.023C533.413 802.351 533.604 802.768 533.714 803.274C533.775 803.588 533.806 804.156 533.806 804.976V807.437C533.806 809.153 533.844 810.24 533.919 810.698C534.001 811.149 534.158 811.583 534.391 812H532.463C532.271 811.617 532.148 811.169 532.094 810.657ZM531.94 806.535C531.27 806.808 530.265 807.041 528.925 807.232C528.167 807.341 527.63 807.464 527.315 807.601C527.001 807.738 526.758 807.939 526.587 808.206C526.417 808.466 526.331 808.756 526.331 809.078C526.331 809.57 526.516 809.98 526.885 810.308C527.261 810.636 527.808 810.8 528.525 810.8C529.236 810.8 529.869 810.646 530.422 810.339C530.976 810.024 531.383 809.597 531.643 809.057C531.841 808.64 531.94 808.025 531.94 807.211V806.535ZM536.831 812V796.968H538.82V804.422L546.285 796.968H548.982L542.676 803.059L549.259 812H546.634L541.281 804.392L538.82 806.791V812H536.831Z" fill="white"/>
<g clip-path="url(#clip0_27_4)">
<path d="M623.291 658.511C617.829 658.883 612.645 661.063 608.559 664.707L618.748 674.895C620.077 673.907 621.645 673.29 623.291 673.106V658.511Z" fill="#BBBDBF"/>
<path d="M600.16 684.809C600.523 690.314 602.702 695.544 606.356 699.678L616.545 689.352C615.557 688.023 614.939 686.455 614.755 684.809H600.16Z" fill="#929497"/>
<path d="M606.356 666.91C602.712 670.996 600.532 676.179 600.16 681.642H614.755C614.939 679.996 615.557 678.428 616.545 677.098L606.356 666.91Z" fill="#A6A8AB"/>
<path d="M641.327 664.707C637.193 661.052 631.964 658.873 626.458 658.511V673.106C628.104 673.29 629.672 673.907 631.001 674.895L641.327 664.707Z" fill="#231F20"/>
<path d="M633.204 689.352L643.53 699.678C647.144 695.531 649.275 690.3 649.588 684.809H635.132C634.837 686.448 634.178 688.001 633.204 689.352Z" fill="#58595B"/>
<path d="M649.588 681.642C649.266 676.194 647.134 671.009 643.53 666.91L633.204 677.098C634.178 678.45 634.837 680.002 635.132 681.642H649.588Z" fill="#404041"/>
<path d="M608.559 701.881C612.658 705.485 617.843 707.617 623.291 707.939V693.483C621.652 693.187 620.099 692.529 618.748 691.555L608.559 701.881Z" fill="#808284"/>
<path d="M626.458 707.939C631.949 707.626 637.181 705.495 641.327 701.881L631.001 691.555C629.65 692.529 628.097 693.187 626.458 693.483V707.939Z" fill="#6D6E70"/>
</g>
<g clip-path="url(#clip1_27_4)">
<path style="mix-blend-mode:multiply" d="M415.945 709.151C415.945 712.04 405.256 714.351 392.038 714.351C378.821 714.351 368.131 712.04 368.131 709.151C368.131 706.262 378.821 703.879 392.038 703.879C405.256 703.879 415.945 706.262 415.945 709.151Z" fill="url(#paint6_radial_27_4)"/>
<path d="M392.038 709.946C387.332 709.96 382.728 708.577 378.809 705.971C374.891 703.366 371.834 699.655 370.026 695.31C368.219 690.965 367.742 686.181 368.657 681.565C369.571 676.949 371.836 672.708 375.164 669.381C378.491 666.053 382.732 663.788 387.348 662.874C391.964 661.959 396.748 662.436 401.093 664.243C405.438 666.051 409.149 669.108 411.754 673.026C414.36 676.945 415.743 681.549 415.729 686.255C415.729 689.366 415.116 692.447 413.925 695.321C412.735 698.196 410.99 700.807 408.79 703.007C406.59 705.207 403.979 706.952 401.104 708.142C398.23 709.333 395.149 709.946 392.038 709.946Z" fill="url(#paint7_radial_27_4)"/>
<path d="M392.038 662.709C396.695 662.709 401.248 664.09 405.12 666.677C408.992 669.265 412.01 672.942 413.792 677.245C415.574 681.547 416.04 686.281 415.132 690.849C414.223 695.416 411.981 699.612 408.688 702.905C405.395 706.198 401.199 708.44 396.632 709.349C392.064 710.257 387.33 709.791 383.028 708.009C378.725 706.227 375.048 703.209 372.461 699.337C369.873 695.465 368.492 690.912 368.492 686.255C368.492 680.01 370.973 674.021 375.389 669.606C379.805 665.19 385.794 662.709 392.038 662.709ZM392.038 662.348C387.31 662.348 382.688 663.75 378.756 666.377C374.825 669.004 371.761 672.738 369.951 677.106C368.142 681.475 367.668 686.282 368.591 690.919C369.513 695.557 371.79 699.817 375.133 703.16C378.477 706.504 382.737 708.781 387.374 709.703C392.012 710.625 396.819 710.152 401.187 708.343C405.556 706.533 409.289 703.469 411.916 699.537C414.543 695.606 415.945 690.984 415.945 686.255C415.945 679.915 413.427 673.834 408.943 669.35C404.46 664.867 398.379 662.348 392.038 662.348V662.348Z" fill="#8C98A0"/>
<path style="mix-blend-mode:screen" opacity="0.6" d="M391.894 691.167C391.908 692.858 391.419 694.516 390.488 695.929C389.557 697.341 388.226 698.445 386.666 699.099C385.106 699.753 383.386 699.928 381.726 699.601C380.066 699.275 378.541 698.461 377.345 697.265C376.149 696.069 375.335 694.544 375.009 692.884C374.682 691.224 374.857 689.504 375.511 687.944C376.165 686.384 377.269 685.053 378.681 684.122C380.094 683.191 381.752 682.702 383.443 682.716C385.685 682.716 387.834 683.606 389.419 685.191C391.004 686.776 391.894 688.925 391.894 691.167Z" fill="url(#paint8_radial_27_4)"/>
<path style="mix-blend-mode:screen" opacity="0.8" d="M383.443 676.577C383.443 676.842 383.391 677.105 383.289 677.351C383.188 677.596 383.039 677.819 382.851 678.007C382.663 678.195 382.44 678.344 382.195 678.445C381.949 678.547 381.686 678.599 381.421 678.599C380.89 678.581 380.386 678.362 380.011 677.987C379.635 677.611 379.417 677.107 379.399 676.577C379.399 676.04 379.612 675.526 379.991 675.147C380.37 674.768 380.885 674.554 381.421 674.554C381.689 674.544 381.957 674.59 382.207 674.688C382.457 674.786 382.684 674.934 382.873 675.124C383.063 675.314 383.212 675.541 383.31 675.791C383.408 676.041 383.453 676.309 383.443 676.577Z" fill="url(#paint9_radial_27_4)"/>
<path style="mix-blend-mode:screen" opacity="0.8" d="M384.021 693.261C383.907 694.013 383.527 694.698 382.951 695.194C382.374 695.689 381.639 695.961 380.879 695.961C380.119 695.961 379.384 695.689 378.808 695.194C378.231 694.698 377.852 694.013 377.737 693.261C377.669 692.809 377.698 692.347 377.825 691.907C377.951 691.467 378.171 691.059 378.469 690.712C378.767 690.365 379.137 690.086 379.553 689.895C379.969 689.704 380.422 689.606 380.879 689.606C381.337 689.606 381.789 689.704 382.205 689.895C382.621 690.086 382.991 690.365 383.289 690.712C383.588 691.059 383.808 691.467 383.934 691.907C384.06 692.347 384.09 692.809 384.021 693.261Z" fill="url(#paint10_radial_27_4)"/>
<path style="mix-blend-mode:screen" opacity="0.8" d="M398.9 672.965C398.9 673.962 398.504 674.917 397.8 675.621C397.095 676.326 396.14 676.721 395.144 676.721C394.645 676.731 394.149 676.641 393.685 676.456C393.221 676.272 392.798 675.997 392.442 675.647C392.085 675.297 391.802 674.88 391.609 674.42C391.415 673.959 391.316 673.465 391.316 672.965C391.316 671.95 391.719 670.977 392.437 670.259C393.155 669.541 394.129 669.137 395.144 669.137C395.643 669.137 396.138 669.237 396.598 669.43C397.059 669.623 397.476 669.906 397.826 670.263C398.175 670.619 398.451 671.042 398.635 671.506C398.819 671.97 398.909 672.466 398.9 672.965Z" fill="url(#paint11_radial_27_4)"/>
<path style="mix-blend-mode:screen" d="M394.566 680.91C394.566 681.121 394.483 681.323 394.334 681.472C394.185 681.621 393.983 681.705 393.772 681.705C393.561 681.705 393.359 681.621 393.21 681.472C393.061 681.323 392.977 681.121 392.977 680.91C392.977 680.7 393.061 680.498 393.21 680.349C393.359 680.2 393.561 680.116 393.772 680.116C393.983 680.116 394.185 680.2 394.334 680.349C394.483 680.498 394.566 680.7 394.566 680.91Z" fill="url(#paint12_radial_27_4)"/>
<path style="mix-blend-mode:screen" d="M387.632 682.283C387.632 682.597 387.539 682.904 387.365 683.166C387.19 683.427 386.942 683.631 386.652 683.751C386.361 683.871 386.042 683.903 385.733 683.841C385.425 683.78 385.142 683.629 384.92 683.406C384.698 683.184 384.546 682.901 384.485 682.593C384.424 682.285 384.455 681.965 384.575 681.675C384.696 681.384 384.899 681.136 385.161 680.962C385.422 680.787 385.729 680.694 386.043 680.694C386.465 680.694 386.869 680.861 387.167 681.159C387.465 681.457 387.632 681.861 387.632 682.283Z" fill="url(#paint13_radial_27_4)"/>
<path style="mix-blend-mode:screen" opacity="0.8" d="M414.79 684.666C414.79 686.866 414.137 689.017 412.915 690.846C411.693 692.675 409.956 694.101 407.923 694.943C405.891 695.784 403.655 696.005 401.497 695.575C399.339 695.146 397.357 694.087 395.802 692.531C394.246 690.976 393.187 688.994 392.758 686.836C392.328 684.679 392.549 682.442 393.391 680.41C394.233 678.377 395.658 676.64 397.487 675.418C399.316 674.196 401.467 673.543 403.667 673.543C406.617 673.543 409.446 674.715 411.532 676.801C413.618 678.887 414.79 681.716 414.79 684.666Z" fill="url(#paint14_radial_27_4)"/>
<path style="mix-blend-mode:screen" d="M394.35 689.433C401.356 682.283 409.228 678.599 412.334 680.838L412.045 680.549C409.156 677.732 400.994 681.488 393.772 688.855C386.549 696.223 382.938 704.529 385.755 707.345L386.116 707.562C383.805 704.529 387.344 696.584 394.35 689.433Z" fill="url(#paint15_linear_27_4)"/>
<path style="mix-blend-mode:screen" opacity="0.4" d="M396.444 687.7C399.911 676.216 399.983 665.959 396.661 664.226H397.094C400.778 665.382 400.85 675.927 397.239 687.916C393.627 699.906 387.705 708.646 384.021 707.49L383.66 707.345C387.344 707.779 392.977 699.256 396.444 687.7Z" fill="url(#paint16_linear_27_4)"/>
<path style="mix-blend-mode:screen" opacity="0.7" d="M390.955 697.234C380.627 694.345 372.97 689.144 373.404 685.316C373.323 685.448 373.274 685.596 373.259 685.75C372.176 689.578 380.049 695.067 390.738 698.028C401.428 700.99 411.034 700.195 412.117 696.367C412.117 696.223 412.19 696.078 412.19 695.934C410.601 699.401 401.356 700.051 390.955 697.234Z" fill="url(#paint17_linear_27_4)"/>
<path style="mix-blend-mode:screen" d="M390.738 673.977C400.489 671.882 409.156 673.399 410.528 677.227C410.539 677.079 410.514 676.93 410.456 676.794C409.589 672.604 400.633 670.943 390.522 673.11C380.41 675.277 372.898 680.405 373.837 684.594C373.837 684.811 373.909 684.955 373.909 685.1C373.62 680.91 380.915 676.071 390.738 673.977Z" fill="url(#paint18_linear_27_4)"/>
<path style="mix-blend-mode:screen" d="M400.922 679.466C408.289 689.144 410.023 700.339 405.039 704.962L405.617 704.529C411.323 700.195 409.734 688.567 402.15 678.599C394.566 668.632 383.66 663.937 378.026 668.271C377.802 668.399 377.606 668.571 377.448 668.776C383.227 665.165 393.555 669.788 400.922 679.466Z" fill="url(#paint19_linear_27_4)"/>
<path style="mix-blend-mode:screen" d="M381.06 686.905C380.699 675.349 384.166 665.815 388.933 665.021H388.427C383.371 665.165 379.615 674.988 379.976 686.905C380.338 698.823 384.743 708.429 389.727 708.284H390.305C385.466 707.707 381.421 698.462 381.06 686.905Z" fill="url(#paint20_linear_27_4)"/>
<path style="mix-blend-mode:screen" opacity="0.7" d="M398.611 703.373C389.077 706.768 379.976 706.045 377.882 701.784C377.905 701.959 377.954 702.129 378.026 702.29C379.688 706.984 389.077 707.923 398.972 704.312C408.867 700.701 415.584 694.056 413.851 689.361L413.634 688.855C414.718 693.55 408.217 699.906 398.611 703.373Z" fill="url(#paint21_linear_27_4)"/>
<g style="mix-blend-mode:screen">
<path d="M406.339 672.604C406.339 676.649 399.911 679.899 392.038 679.899C384.166 679.899 377.737 676.649 377.737 672.604C377.737 668.56 384.166 665.309 392.038 665.309C399.911 665.309 406.339 668.56 406.339 672.604Z" fill="url(#paint22_linear_27_4)"/>
</g>
</g>
<g clip-path="url(#clip2_27_4)">
<path d="M510.328 751.842C505.043 751.82 499.883 750.232 495.499 747.279C491.116 744.327 487.705 740.142 485.698 735.253C483.691 730.364 483.177 724.989 484.222 719.809C485.267 714.628 487.823 709.872 491.568 706.143C495.313 702.414 500.079 699.878 505.264 698.855C510.449 697.832 515.821 698.368 520.702 700.396C525.583 702.423 529.753 705.852 532.687 710.248C535.621 714.644 537.187 719.81 537.187 725.095C537.157 732.199 534.314 739.002 529.281 744.015C524.247 749.028 517.432 751.842 510.328 751.842Z" fill="url(#paint23_linear_27_4)"/>
<path d="M510.328 698.575C515.573 698.575 520.701 700.13 525.062 703.044C529.423 705.958 532.823 710.1 534.83 714.946C536.837 719.792 537.362 725.125 536.339 730.269C535.316 735.414 532.79 740.139 529.081 743.848C525.372 747.557 520.646 750.083 515.502 751.107C510.357 752.13 505.025 751.605 500.179 749.597C495.333 747.59 491.191 744.191 488.277 739.83C485.363 735.468 483.807 730.341 483.807 725.095C483.807 718.062 486.601 711.316 491.575 706.342C496.548 701.369 503.294 698.575 510.328 698.575ZM510.328 698.01C504.971 698.01 499.734 699.599 495.28 702.575C490.826 705.551 487.355 709.781 485.305 714.73C483.255 719.679 482.718 725.125 483.763 730.379C484.808 735.633 487.388 740.459 491.176 744.247C494.964 748.035 499.79 750.615 505.044 751.66C510.298 752.705 515.744 752.169 520.693 750.119C525.642 748.069 529.872 744.597 532.848 740.143C535.824 735.689 537.413 730.452 537.413 725.095C537.428 721.534 536.738 718.006 535.382 714.713C534.026 711.42 532.031 708.428 529.513 705.91C526.995 703.392 524.003 701.397 520.711 700.042C517.418 698.686 513.889 697.995 510.328 698.01Z" fill="#B2B4B7"/>
<path d="M530.077 725.095C530.077 729.001 528.919 732.82 526.749 736.068C524.579 739.315 521.494 741.847 517.886 743.342C514.277 744.836 510.306 745.227 506.475 744.465C502.644 743.703 499.125 741.822 496.363 739.06C493.601 736.298 491.72 732.779 490.958 728.948C490.196 725.117 490.587 721.146 492.082 717.538C493.577 713.929 496.108 710.844 499.356 708.674C502.603 706.504 506.422 705.346 510.328 705.346C515.566 705.346 520.589 707.427 524.293 711.13C527.997 714.834 530.077 719.857 530.077 725.095Z" fill="url(#paint24_linear_27_4)"/>
<path d="M510.328 741.459C507.091 741.459 503.928 740.5 501.237 738.701C498.546 736.903 496.448 734.348 495.21 731.358C493.971 728.367 493.647 725.077 494.278 721.903C494.91 718.729 496.468 715.813 498.757 713.524C501.045 711.236 503.961 709.677 507.135 709.046C510.31 708.414 513.6 708.739 516.59 709.977C519.58 711.216 522.136 713.313 523.934 716.004C525.732 718.695 526.692 721.859 526.692 725.095C526.692 729.435 524.968 733.598 521.899 736.666C518.83 739.735 514.668 741.459 510.328 741.459Z" fill="url(#paint25_radial_27_4)"/>
<path d="M510.328 709.296C513.453 709.296 516.507 710.222 519.106 711.958C521.704 713.695 523.729 716.162 524.925 719.049C526.121 721.936 526.434 725.113 525.824 728.178C525.214 731.243 523.709 734.058 521.5 736.267C519.29 738.477 516.475 739.982 513.41 740.591C510.345 741.201 507.169 740.888 504.282 739.692C501.395 738.496 498.927 736.471 497.191 733.873C495.455 731.275 494.528 728.22 494.528 725.095C494.528 720.905 496.193 716.886 499.156 713.923C502.119 710.96 506.138 709.296 510.328 709.296ZM510.328 708.167C506.98 708.167 503.707 709.16 500.923 711.02C498.139 712.88 495.969 715.524 494.688 718.617C493.407 721.71 493.072 725.114 493.725 728.398C494.378 731.682 495.99 734.698 498.358 737.065C500.725 739.433 503.742 741.045 507.025 741.698C510.309 742.351 513.713 742.016 516.806 740.735C519.899 739.454 522.543 737.284 524.403 734.5C526.263 731.716 527.256 728.443 527.256 725.095C527.256 720.606 525.473 716.3 522.298 713.125C519.123 709.951 514.817 708.167 510.328 708.167Z" fill="#8C98A0"/>
<g style="mix-blend-mode:multiply" opacity="0.8">
<path d="M520.372 711.553C520.509 712.298 520.584 713.053 520.598 713.81C520.598 718.3 518.814 722.605 515.639 725.78C512.465 728.955 508.159 730.738 503.669 730.738C500.036 730.773 496.497 729.58 493.625 727.352C493.974 730.138 495.01 732.793 496.64 735.078C498.27 737.363 500.443 739.208 502.963 740.445C505.483 741.681 508.271 742.272 511.076 742.164C513.881 742.055 516.615 741.251 519.032 739.823C521.449 738.396 523.473 736.389 524.922 733.985C526.37 731.581 527.199 728.854 527.331 726.05C527.464 723.246 526.898 720.453 525.683 717.922C524.468 715.391 522.643 713.203 520.372 711.553Z" fill="url(#paint26_linear_27_4)"/>
</g>
</g>
<circle cx="884.571" cy="312.838" r="48" transform="rotate(-40.3671 884.571 312.838)" fill="#36A9E1"/>
<circle cx="901.357" cy="414.971" r="23" transform="rotate(-40.3671 901.357 414.971)" fill="#36A9E1"/>
<circle cx="809.102" cy="290.145" r="7" transform="rotate(-40.3671 809.102 290.145)" fill="#36A9E1"/>
<defs>
<filter id="filter0_f_27_4" x="1" y="146" width="1014" height="944" filterUnits="userSpaceOnUse" color-interpolation-filters="sRGB">
<feFlood flood-opacity="0" result="BackgroundImageFix"/>
<feBlend mode="normal" in="SourceGraphic" in2="BackgroundImageFix" result="shape"/>
<feGaussianBlur stdDeviation="148.5" result="effect1_foregroundBlur_27_4"/>
</filter>
<filter id="filter1_i_27_4" x="357.774" y="189.003" width="289.782" height="239.236" filterUnits="userSpaceOnUse" color-interpolation-filters="sRGB">
<feFlood flood-opacity="0" result="BackgroundImageFix"/>
<feBlend mode="normal" in="SourceGraphic" in2="BackgroundImageFix" result="shape"/>
<feColorMatrix in="SourceAlpha" type="matrix" values="0 0 0 0 0 0 0 0 0 0 0 0 0 0 0 0 0 0 127 0" result="hardAlpha"/>
<feOffset dy="4"/>
<feGaussianBlur stdDeviation="29.5"/>
<feComposite in2="hardAlpha" operator="arithmetic" k2="-1" k3="1"/>
<feColorMatrix type="matrix" values="0 0 0 0 0 0 0 0 0 1 0 0 0 0 0.760784 0 0 0 0.16 0"/>
<feBlend mode="normal" in2="shape" result="effect1_innerShadow_27_4"/>
</filter>
<filter id="filter2_i_27_4" x="354.469" y="771.819" width="301.092" height="253.431" filterUnits="userSpaceOnUse" color-interpolation-filters="sRGB">
<feFlood flood-opacity="0" result="BackgroundImageFix"/>
<feBlend mode="normal" in="SourceGraphic" in2="BackgroundImageFix" result="shape"/>
<feColorMatrix in="SourceAlpha" type="matrix" values="0 0 0 0 0 0 0 0 0 0 0 0 0 0 0 0 0 0 127 0" result="hardAlpha"/>
<feOffset dx="-1" dy="4"/>
<feGaussianBlur stdDeviation="29.5"/>
<feComposite in2="hardAlpha" operator="arithmetic" k2="-1" k3="1"/>
<feColorMatrix type="matrix" values="0 0 0 0 0 0 0 0 0 1 0 0 0 0 0.82 0 0 0 0.15 0"/>
<feBlend mode="normal" in2="shape" result="effect1_innerShadow_27_4"/>
</filter>
<filter id="filter3_d_27_4" x="226.356" y="307.338" width="555.643" height="653.487" filterUnits="userSpaceOnUse" color-interpolation-filters="sRGB">
<feFlood flood-opacity="0" result="BackgroundImageFix"/>
<feColorMatrix in="SourceAlpha" type="matrix" values="0 0 0 0 0 0 0 0 0 0 0 0 0 0 0 0 0 0 127 0" result="hardAlpha"/>
<feOffset dy="25"/>
<feGaussianBlur stdDeviation="25"/>
<feComposite in2="hardAlpha" operator="out"/>
<feColorMatrix type="matrix" values="0 0 0 0 0 0 0 0 0 0 0 0 0 0 0 0 0 0 0.44 0"/>
<feBlend mode="normal" in2="BackgroundImageFix" result="effect1_dropShadow_27_4"/>
<feBlend mode="normal" in="SourceGraphic" in2="effect1_dropShadow_27_4" result="shape"/>
</filter>
<filter id="filter4_d_27_4" x="282.119" y="347.128" width="444.231" height="528.533" filterUnits="userSpaceOnUse" color-interpolation-filters="sRGB">
<feFlood flood-opacity="0" result="BackgroundImageFix"/>
<feColorMatrix in="SourceAlpha" type="matrix" values="0 0 0 0 0 0 0 0 0 0 0 0 0 0 0 0 0 0 127 0" result="hardAlpha"/>
<feOffset/>
<feGaussianBlur stdDeviation="11"/>
<feComposite in2="hardAlpha" operator="out"/>
<feColorMatrix type="matrix" values="0 0 0 0 0 0 0 0 0 1 0 0 0 0 0.760784 0 0 0 0.28 0"/>
<feBlend mode="normal" in2="BackgroundImageFix" result="effect1_dropShadow_27_4"/>
<feBlend mode="normal" in="SourceGraphic" in2="effect1_dropShadow_27_4" result="shape"/>
</filter>
<linearGradient id="paint0_linear_27_4" x1="503" y1="189" x2="505.131" y2="306.961" gradientUnits="userSpaceOnUse">
<stop stop-color="#31312F"/>
<stop offset="1" stop-color="#1B1B1A"/>
</linearGradient>
<linearGradient id="paint1_linear_27_4" x1="506" y1="1041.5" x2="503.435" y2="897.046" gradientUnits="userSpaceOnUse">
<stop stop-color="#2E2E2C"/>
<stop offset="1" stop-color="#171717"/>
</linearGradient>
<linearGradient id="paint2_linear_27_4" x1="504.177" y1="885.518" x2="504.177" y2="332.588" gradientUnits="userSpaceOnUse">
<stop stop-color="#30302F"/>
<stop offset="1" stop-color="#1D1D1B"/>
</linearGradient>
<linearGradient id="paint3_linear_27_4" x1="504.212" y1="369.401" x2="504.212" y2="853.456" gradientUnits="userSpaceOnUse">
<stop stop-color="#00FFC2"/>
<stop offset="1" stop-color="#00FFC2"/>
</linearGradient>
<linearGradient id="paint4_linear_27_4" x1="505.983" y1="885.822" x2="505.983" y2="918.178" gradientUnits="userSpaceOnUse">
<stop stop-color="#303030"/>
<stop offset="1" stop-color="#181818"/>
</linearGradient>
<linearGradient id="paint5_linear_27_4" x1="504.945" y1="299.939" x2="504.945" y2="332.317" gradientUnits="userSpaceOnUse">
<stop offset="0.07" stop-color="#292929"/>
<stop offset="1" stop-color="#1F1F1F"/>
</linearGradient>
<radialGradient id="paint6_radial_27_4" cx="0" cy="0" r="1" gradientUnits="userSpaceOnUse" gradientTransform="translate(389.917 710.746) scale(23.837 5.22742)">
<stop offset="0.1" stop-color="#DADADA" stop-opacity="0.95"/>
<stop offset="1" stop-color="white" stop-opacity="0"/>
</radialGradient>
<radialGradient id="paint7_radial_27_4" cx="0" cy="0" r="1" gradientUnits="userSpaceOnUse" gradientTransform="translate(391.988 703.85) scale(24.6366 24.6366)">
<stop stop-color="white"/>
<stop offset="1" stop-color="#B1BFC7"/>
</radialGradient>
<radialGradient id="paint8_radial_27_4" cx="0" cy="0" r="1" gradientUnits="userSpaceOnUse" gradientTransform="translate(383.436 691.159) scale(8.45777)">
<stop offset="0.11" stop-color="white"/>
<stop offset="0.95"/>
</radialGradient>
<radialGradient id="paint9_radial_27_4" cx="0" cy="0" r="1" gradientUnits="userSpaceOnUse" gradientTransform="translate(381.464 676.57) scale(2.02958)">
<stop offset="0.11" stop-color="white"/>
<stop offset="0.95"/>
</radialGradient>
<radialGradient id="paint10_radial_27_4" cx="0" cy="0" r="1" gradientUnits="userSpaceOnUse" gradientTransform="translate(380.908 693.232) scale(3.14909)">
<stop offset="0.11" stop-color="white"/>
<stop offset="0.95"/>
</radialGradient>
<radialGradient id="paint11_radial_27_4" cx="0" cy="0" r="1" gradientUnits="userSpaceOnUse" gradientTransform="translate(395.151 672.944) scale(3.79913)">
<stop offset="0.11" stop-color="white"/>
<stop offset="0.95"/>
</radialGradient>
<radialGradient id="paint12_radial_27_4" cx="0" cy="0" r="1" gradientUnits="userSpaceOnUse" gradientTransform="translate(393.786 680.889) scale(0.780049)">
<stop offset="0.11" stop-color="white"/>
<stop offset="0.95"/>
</radialGradient>
<radialGradient id="paint13_radial_27_4" cx="0" cy="0" r="1" gradientUnits="userSpaceOnUse" gradientTransform="translate(386.087 682.276) scale(1.60344)">
<stop offset="0.11" stop-color="white"/>
<stop offset="0.95"/>
</radialGradient>
<radialGradient id="paint14_radial_27_4" cx="0" cy="0" r="1" gradientUnits="userSpaceOnUse" gradientTransform="translate(403.717 684.659) scale(11.1302)">
<stop offset="0.11" stop-color="white"/>
<stop offset="0.95"/>
</radialGradient>
<linearGradient id="paint15_linear_27_4" x1="412.577" y1="682.164" x2="385.817" y2="708.924" gradientUnits="userSpaceOnUse">
<stop/>
<stop offset="0.6" stop-color="white"/>
<stop offset="0.9"/>
</linearGradient>
<linearGradient id="paint16_linear_27_4" x1="390.772" y1="643.452" x2="377.831" y2="687.309" gradientUnits="userSpaceOnUse">
<stop/>
<stop offset="0.6" stop-color="white"/>
<stop offset="0.9"/>
</linearGradient>
<linearGradient id="paint17_linear_27_4" x1="376.021" y1="672.461" x2="415.111" y2="683.63" gradientUnits="userSpaceOnUse">
<stop/>
<stop offset="0.6" stop-color="white"/>
<stop offset="0.9"/>
</linearGradient>
<linearGradient id="paint18_linear_27_4" x1="426.831" y1="663.517" x2="389.893" y2="671.012" gradientUnits="userSpaceOnUse">
<stop/>
<stop offset="0.6" stop-color="white"/>
<stop offset="0.9"/>
</linearGradient>
<linearGradient id="paint19_linear_27_4" x1="403.549" y1="685.357" x2="375.869" y2="648.449" gradientUnits="userSpaceOnUse">
<stop/>
<stop offset="0.6" stop-color="white"/>
<stop offset="0.9"/>
</linearGradient>
<linearGradient id="paint20_linear_27_4" x1="412.372" y1="684.1" x2="413.159" y2="727.725" gradientUnits="userSpaceOnUse">
<stop/>
<stop offset="0.6" stop-color="white"/>
<stop offset="0.9"/>
</linearGradient>
<linearGradient id="paint21_linear_27_4" x1="407.322" y1="728.021" x2="443.688" y2="715.347" gradientUnits="userSpaceOnUse">
<stop/>
<stop offset="0.6" stop-color="white"/>
<stop offset="0.9"/>
</linearGradient>
<linearGradient id="paint22_linear_27_4" x1="387.027" y1="684.327" x2="387.027" y2="703.528" gradientUnits="userSpaceOnUse">
<stop stop-color="white"/>
<stop offset="1"/>
</linearGradient>
<linearGradient id="paint23_linear_27_4" x1="501.875" y1="704.793" x2="521.929" y2="752.959" gradientUnits="userSpaceOnUse">
<stop stop-color="white"/>
<stop offset="1" stop-color="#D4D6D7"/>
</linearGradient>
<linearGradient id="paint24_linear_27_4" x1="526.872" y1="745.703" x2="499.832" y2="712.027" gradientUnits="userSpaceOnUse">
<stop stop-color="white"/>
<stop offset="1" stop-color="#B8BABC"/>
</linearGradient>
<radialGradient id="paint25_radial_27_4" cx="0" cy="0" r="1" gradientUnits="userSpaceOnUse" gradientTransform="translate(506.006 717.489) scale(17.3345)">
<stop stop-color="white"/>
<stop offset="1" stop-color="#B1BFC7"/>
</radialGradient>
<linearGradient id="paint26_linear_27_4" x1="507.766" y1="720.66" x2="519.977" y2="741.73" gradientUnits="userSpaceOnUse">
<stop stop-color="white"/>
<stop offset="1" stop-color="#B7C6CE"/>
</linearGradient>
<clipPath id="clip0_27_4">
<rect width="49.428" height="49.428" fill="white" transform="translate(600.16 658.511)"/>
</clipPath>
<clipPath id="clip1_27_4">
<rect width="47.8142" height="52.0034" fill="white" transform="translate(368.131 662.348)"/>
</clipPath>
<clipPath id="clip2_27_4">
<rect width="54.1702" height="54.1702" fill="white" transform="translate(483.243 698.01)"/>
</clipPath>
</defs>
</svg>
